Coordinates
version=1
nRows=19
nColumns=24
inDegrees=yes

Units are S.I. units (second, meters, Newtons, ...)
Angles are in degrees.

endheader
time	pelvis_tilt	pelvis_list	pelvis_rotation	pelvis_tx	pelvis_ty	pelvis_tz	hip_flexion_r	hip_adduction_r	hip_rotation_r	knee_angle_r	ankle_angle_r	subtalar_angle_r	mtp_angle_r	hip_flexion_l	hip_adduction_l	hip_rotation_l	knee_angle_l	ankle_angle_l	subtalar_angle_l	mtp_angle_l	lumbar_extension	lumbar_bending	lumbar_rotation
      0.84133333	     -0.19401580	      0.72854603	     -1.70527088	     -0.24709691	      1.02689304	      0.36984842	     -0.92163973	      1.69600888	      0.74235727	    -15.85524672	      9.41976431	     -6.22664261	      1.62252497	     19.39129521	      1.93674930	     -1.92749160	    -43.77803816	      5.32076004	     -9.13497752	      1.64526180	    -12.21462905	      5.10323407	      4.86076639
      0.84550000	     -0.23716581	      0.73026104	     -1.69944557	     -0.24204093	      1.02723858	      0.36984991	     -1.30760944	      1.67779294	      0.70103459	    -15.56494542	      9.13734942	     -6.21633767	      1.63285030	     19.52120531	      2.00573823	     -1.81288645	    -42.32637972	      5.44394846	     -9.11838965	      1.60891185	    -12.20748144	      5.07833578	      4.92835943
      0.84966667	     -0.20276767	      0.70587843	     -1.67470839	     -0.23695395	      1.02765195	      0.36983956	     -1.81058347	      1.69130339	      0.67857896	    -15.20930856	      8.89960041	     -6.28023289	      1.65840716	     19.54702674	      2.05419111	     -1.67416151	    -40.83699946	      5.49176664	     -9.17944807	      1.54892757	    -12.28479720	      5.08702671	      5.01936757
      0.85383333	     -0.18503088	      0.67055851	     -1.65134404	     -0.23186759	      1.02799684	      0.36982897	     -2.28004353	      1.71594228	      0.64411192	    -14.88748481	      8.63738128	     -6.31731583	      1.69425262	     19.57603385	      2.08976708	     -1.52447509	    -39.31943650	      5.50853720	     -9.21193809	      1.48338853	    -12.33298808	      5.09885309	      5.08207485
      0.85800000	     -0.19692939	      0.64262896	     -1.62244289	     -0.22677225	      1.02826859	      0.36979343	     -2.70933378	      1.73105400	      0.58935177	    -14.58254650	      8.37970369	     -6.33940190	      1.73727852	     19.61902112	      2.13577177	     -1.36285324	    -37.76525479	      5.46724826	     -9.25724443	      1.41609660	    -12.35216611	      5.11071111	      5.13355750
      0.86216667	     -0.16852570	      0.60384228	     -1.58731269	     -0.22165664	      1.02856505	      0.36975238	     -3.18936435	      1.75696714	      0.52372164	    -14.26285664	      8.11201868	     -6.35881013	      1.79278916	     19.59762883	      2.17045125	     -1.19530096	    -36.17458830	      5.38315647	     -9.30774710	      1.34187276	    -12.41393749	      5.13723395	      5.17336843
      0.86633333	     -0.18236776	      0.56032413	     -1.54855823	     -0.21654218	      1.02873568	      0.36969434	     -3.60812047	      1.78809703	      0.44652546	    -13.97894723	      7.86246133	     -6.36974910	      1.85579150	     19.61054621	      2.19994220	     -1.01590912	    -34.56600946	      5.25886285	     -9.36268389	      1.26827546	    -12.43046431	      5.17070807	      5.20738644
      0.87050000	     -0.20764942	      0.51278459	     -1.50700059	     -0.21140525	      1.02887054	      0.36962512	     -4.00847272	      1.82187486	      0.34256555	    -13.70588514	      7.57567577	     -6.37199155	      1.90890149	     19.61787900	      2.21908033	     -0.85067165	    -32.92946445	      5.10345545	     -9.37755648	      1.20884620	    -12.43347486	      5.22284572	      5.23650624
      0.87466667	     -0.19796458	      0.43929840	     -1.45476767	     -0.20627401	      1.02898875	      0.36955916	     -4.45703267	      1.89058104	      0.27526639	    -13.41820224	      7.34444372	     -6.39712711	      1.98882992	     19.57249983	      2.21804302	     -0.64187166	    -31.27122994	      4.90415923	     -9.45125270	      1.13309576	    -12.47103070	      5.28013078	      5.25006555
      0.87883333	     -0.21120066	      0.36817659	     -1.40366207	     -0.20110293	      1.02904589	      0.36948377	     -4.87383702	      1.95428110	      0.18218996	    -13.14618416	      7.08859400	     -6.41281716	      2.08530741	     19.53459412	      2.21141130	     -0.45755286	    -29.59062373	      4.67376513	     -9.49732718	      1.05234834	    -12.47984170	      5.34800106	      5.26016185
      0.88300000	     -0.21229581	      0.28861973	     -1.35096872	     -0.19592287	      1.02907994	      0.36941053	     -5.30120458	      2.02860219	      0.08666541	    -12.87974723	      6.83359792	     -6.43079691	      2.19954353	     19.46899163	      2.19162205	     -0.28109111	    -27.89284390	      4.41969616	     -9.52722242	      0.96713030	    -12.50138594	      5.42724327	      5.26603650
      0.88716667	     -0.23139443	      0.19125649	     -1.29719842	     -0.19073552	      1.02904040	      0.36933103	     -5.69863587	      2.12308927	     -0.00734198	    -12.63688475	      6.56984106	     -6.45387907	      2.32240907	     19.41226728	      2.14859583	     -0.11057942	    -26.18986291	      4.15379349	     -9.52894360	      0.88458658	    -12.50377641	      5.52528230	      5.27184552
      0.89133333	     -0.24440397	      0.09285700	     -1.24395071	     -0.18552796	      1.02895430	      0.36925301	     -6.09681205	      2.21928907	     -0.10432799	    -12.40967724	      6.32048731	     -6.46923144	      2.45830477	     19.33717659	      2.09934247	      0.04122728	    -24.47974301	      3.87234769	     -9.50998533	      0.80265192	    -12.50906820	      5.62387747	      5.27132647
      0.89550000	     -0.24380931	     -0.00838664	     -1.19071748	     -0.18028934	      1.02884946	      0.36916914	     -6.50909951	      2.31843513	     -0.20625071	    -12.18648907	      6.06852344	     -6.48052713	      2.60587662	     19.23375148	      2.04316780	      0.17405622	    -22.76273733	      3.57902199	     -9.46731590	      0.72281450	    -12.52982844	      5.72747849	      5.27227494
      0.89966667	     -0.29682304	     -0.13788244	     -1.14052483	     -0.17506007	      1.02860055	      0.36909207	     -6.84385483	      2.45070560	     -0.29369316	    -12.00569287	      5.82220854	     -6.50720673	      2.76471729	     19.19292870	      1.95011513	      0.28402683	    -21.07739188	      3.29802661	     -9.38729355	      0.64694724	    -12.48603384	      5.86300950	      5.27400787
      0.90383333	     -0.31109174	     -0.25984393	     -1.09301629	     -0.16979330	      1.02837440	      0.36901851	     -7.22301027	      2.57463373	     -0.37825192	    -11.82264929	      5.58896439	     -6.52613542	      2.94059063	     19.09516947	      1.86108473	      0.36550316	    -19.38744714	      3.01578777	     -9.26530031	      0.57264404	    -12.48413448	      5.98879477	      5.27609057
      0.90800000	     -0.37368886	     -0.39151040	     -1.03726913	     -0.16451499	      1.02802288	      0.36892146	     -7.53339577	      2.71091510	     -0.47432998	    -11.67398885	      5.32556933	     -6.65169010	      6.13136576	     19.05064542	      1.76565990	      0.45231124	    -17.72749826	      2.72333839	     -9.15812004	     -0.41623863	    -12.41356651	      6.14126614	      5.21115182
      0.91216667	     -0.37293683	     -0.54770880	     -1.00671085	     -0.15921601	      1.02771878	      0.36885549	     -7.91187614	      2.86707287	     -0.54699203	    -11.52682525	      5.08021457	     -6.59920390	      6.16385476	     18.94711245	      1.62483419	      0.41816907	    -16.12853770	      2.55401859	     -8.85192024	     -0.41422114	    -12.44244407	      6.29878437	      5.28531782
      0.91633333	     -0.42642922	     -0.69982056	     -0.97424612	     -0.15389464	      1.02728040	      0.36878075	     -8.21465367	      3.02139335	     -0.61911485	    -11.42277780	      4.87972931	     -6.60401642	      6.20404912	     18.90478862	      1.49001273	      0.36438280	    -14.57051405	      2.35545048	     -8.55564301	     -0.41327964	    -12.39014861	      6.47168507	      5.30967354
